# xmcd
#
# Track frame offsets: 
#        150
#        23833
#        44514
#        68170
#        89115
#        115839
#        136793
#        184818
#        203426
#        230886
#        257397
#
# Disc length: 3727 seconds
#
# Revision: 0
# Processed by: cddbd v1.5.2PL0 Copyright (c) Steve Scherf et al.
# Submitted via: ExactAudioCopy v0.99pb5
#
DISCID=960e8d0b
DTITLE=The 24th Street Wailers - Live In Halifax
DYEAR=2013
DGENRE=Blues
TTITLE0=All Around The World
TTITLE1=Jack, Jim, Johnny And Me
TTITLE2=The Pleasure's All Mine
TTITLE3=I Don't Want No Woman
TTITLE4=Shake A Hand
TTITLE5=Never-Ending Day
TTITLE6=I Got My Mojo Working
TTITLE7=Empty Arms
TTITLE8=House Party
TTITLE9=Love Triangle
TTITLE10=Shake Your Money Maker
EXTD=
EXTT0=
EXTT1=
EXTT2=
EXTT3=
EXTT4=
EXTT5=
EXTT6=
EXTT7=
EXTT8=
EXTT9=
EXTT10=
PLAYORDER=
